<svg xmlns="http://www.w3.org/2000/svg" width="1000" height="1000"><g transform="matrix(.8 0 0 .8 100 100)"><path fill="#333" stroke="#eee" stroke-width="3" d="M27.23 40.36C10.65 55 4.48 101.68 15.66 128.28c4.63 11.57 4.63 18.5-.4 53.22-9.24 65.95-1.9 109.53 22.77 135.36 10.4 11.2 13.5 16.97 11.2 21.6-10.42 20.44-6.95 61.7 8.1 91.78 9.25 18.5 32.4 43.58 40.1 43.58 8.87 0 9.64 7.33 2.7 18.13-9.25 14.27-8.48 47.82 1.54 70.96 4.24 9.7 16.2 25.9 26.6 35.5 14.28 13.9 20.83 24.3 29.32 47.5 47 128.8 172.3 259.6 294.2 306.6 43.9 17 49.3 17.4 87.1 3.5 67.1-24.3 125.7-64.4 187.4-128.8 54-55.9 92.9-116.4 118.7-186.2 7.3-18.9 15-30.8 27.7-43.2 9.6-9.2 21.2-25 25.4-34.7 10-23.1 10.8-56.7 1.52-70.9-6.98-10.8-6.2-18.1 2.7-18.1 7.7 0 30.8-25.02 40.1-43.53 15-30.1 18.5-71.35 8.1-91.8-2.36-4.62.73-10.4 11.14-21.6 24.7-25.8 32-69.4 22.75-135.33-5-34.7-5-41.65-.4-53.2 11.56-27 4.23-78.3-12.74-89.1-14.65-9.64-62.1-4.63-99.1 10.03-49.7 20-88.3 49.7-139.2 108.7l-32.4 37.4-16.6-3.5c-9.23-1.54-32.4-4.24-51.3-5.78-32.75-2.7-35.45-3.5-51.26-17-18.9-16.97-68.64-42.4-81.76-42.4-13.1 0-62.86 25.43-81.76 42.4-15.4 13.1-18.9 14.25-48.95 16.95-18.1 1.56-40.5 4.26-50.1 6.58l-17.6 4.2-23.1-26.6C198.85 79 136.75 39.6 66.2 35.4c-26.2-1.95-32-1.18-38.96 5zm389.1 211.72c11.97 3.08 35.5 12.73 52.84 21.98l30.85 16.2 30.85-16.2c54.77-28.92 87.16-33.16 148.48-20.44 40.88 8.48 74.04 23.9 78.67 36.64 1.93 5 1.93 16.58 0 27.38-3.08 16.97-7.7 25.84-28.92 54.76-10.03 13.88-1.54 31.62 24.68 52.45 33.17 25.84 50.52 45.5 54.76 60.55 4.63 17.35-.77 69.03-11.95 107.98C764.5 709.83 664.3 828.6 550.9 885.3c-43.96 21.6-54.76 22.37-93.33 3.86-119.17-57.08-225.2-182.4-256.84-304.66-8.87-34.7-13.5-83.3-9.26-99.1 4.25-15.05 21.6-34.72 54.4-60.56 12.33-9.26 24.28-22.37 26.98-28.92 5.4-12.73 5.4-12.73-16.6-44.35-11.94-16.58-19.27-48.2-14.64-60.93 4.3-11.57 42.1-28.54 80.6-37.02 41.3-8.48 66-8.87 94.1-1.54z"/><path fill="#333" stroke="#eee" stroke-width="3" d="M279.05 399.4c-2.7 14.64 3.08 54.36 10.8 74.42 16.58 41.65 53.22 76.36 84.84 80.2 23.1 2.33 58.6-14.64 84.4-41.25l19.3-19.28-18.9-16.6c-52.1-46.7-107.2-74.8-166.2-85.2-10.8-2-12.4-1.2-14.3 7.7zm95.64 33.54l11.1 9.25-4.7 36.2c-2.3 20.4-6.2 40.9-7.7 45.9-3.1 8.1-4.7 5.4-10.1-18.5-6.2-28.2-8.5-82.2-3.1-82.2 1.5 0 7.7 4.2 14.3 9.2zm331.6-41.64c-24.3 5.4-45.2 11.54-65.6 19.64-26.6 11.18-76.8 43.96-101.8 66.7L522 493.5l18.9 19.28c26.22 26.6 61.3 43.58 84.45 41.26 43.96-5 86.77-59.77 94.48-121.1 3.08-23.5 1.54-44.34-3.47-43.57-1.15.4-5.78 1.17-10.02 1.94zm-65.2 46.25c3.4 18.5-.4 52.83-8.9 76.74l-6.6 19.3-5.1-21.3c-2.7-11.6-5.8-33.6-7.4-48.6-2.35-25.9-1.96-27.8 6.53-34 13.5-9.3 18.1-7.7 21.2 7.7zm-209.8 145c-10.4 10.4-5 21.6 16.2 35.48 11.6 7.33 22 15.04 23.1 17.35 4.6 7.3 10 4.6 10-5.4 0-32.78-32.8-64-49.4-47.44zm106.8 3.47c-10.1 10.03-18.9 30.85-18.9 43.96 0 10 5.4 12.7 10 5.4 1.1-2.33 11.5-10.04 23.1-17.36 15-9.64 20.8-15.8 20.8-21.98 0-18.5-20.9-24.3-35.1-10.03z"/><path fill="#333" stroke="#eee" stroke-width="3" d="M299.5 638.87c0 1.16 8.1 15.04 18.12 31.24 52.06 84.5 108.36 152 149.24 179.4 38.18 25.5 77.13 5.4 140.76-72.9 32-39.3 92.94-129.5 92.94-137.6 0-1.1-10.8 2-23.9 6.6-52.07 18.9-83.7 23.2-176.63 23.2s-124.56-4.3-176.23-23.2c-13.5-4.6-24.3-7.7-24.3-6.5zm198.6 75.2c46.66.4 67.5-1.16 86-6.17 13.5-3.47 26.23-6.56 28.15-6.56 3.47 0-13.5 41.65-19.28 47.43-1.93 1.93-8.1-3.86-14.27-12.34s-12.34-15.8-13.5-15.8-6.94 10.4-13.1 23.13c-6.18 12.73-12.35 23.14-13.9 23.14-1.53 0-10.4-10.4-19.27-23.14-8.87-12.73-17.35-23.14-18.9-23.14-1.54 0-10.02 10.4-18.9 23.14-8.86 12.73-17.73 23.14-19.27 23.14-1.16 0-8.1-10.8-14.27-23.9l-12-24.3-8.5 16.58c-4.7 8.87-9.7 16.2-11.2 16.2-2.3 0-31.3-41.65-34.7-50.13-.4-1.54 11.5.77 27 5 22.3 6.18 41.2 7.72 89.8 7.72z"/></g></svg>